<svg id="Capa_1" enable-background="new 0 0 512 512" height="512" viewBox="0 0 512 512" width="512" xmlns="http://www.w3.org/2000/svg"><g><g><g><g><g><path d="m386.831 504.5h-261.662c-11.564 0-20.507-10.14-19.064-21.613l10.738-85.344c3.976-31.597 30.845-55.298 62.691-55.298h152.931c31.847 0 58.716 23.7 62.691 55.298l10.738 85.344c1.444 11.473-7.5 21.613-19.063 21.613z" fill="#ffd05b"/></g></g></g><g><g><g><path d="m136.344 482.887 10.738-85.344c3.976-31.597 30.845-55.298 62.691-55.298h-30.238c-31.847 0-58.716 23.7-62.691 55.298l-10.738 85.344c-1.444 11.473 7.5 21.613 19.064 21.613h30.238c-11.564 0-20.508-10.14-19.064-21.613z" fill="#ffc244"/></g></g></g><g><g><g><path d="m349.643 344.617c-5.476-1.545-11.24-2.371-17.178-2.371h-152.931c-5.653 0-11.144.76-16.383 2.165l58.63 46.048c9.767 7.574 21.953 11.745 34.313 11.745s24.546-4.171 34.313-11.744z" fill="#97da7b"/></g></g></g><g><g><g><path d="m163.151 344.411 11.137 8.747c10.161-6.905 22.401-10.912 35.485-10.912h-30.238c-5.653-.001-11.144.759-16.384 2.165z" fill="#80d261"/></g></g></g><g><g><g><path d="m160.789 214.236h-30.61c-10.538 0-19.08-8.542-19.08-19.08v-21.805c0-10.538 8.542-19.08 19.08-19.08h30.61z" fill="#fbbd80"/></g></g></g><g><g><g><path d="m351.211 154.271h30.61c10.538 0 19.08 8.542 19.08 19.08v21.805c0 10.538-8.542 19.08-19.08 19.08h-30.61z" fill="#fbbd80"/></g></g></g><g><g><g><path d="m290.424 312.367v-24.02h-68.848v24.02c0 7.952-2.718 15.665-7.704 21.86l-6.454 8.019 31.774 24.637c9.893 7.671 23.723 7.671 33.616 0l31.774-24.637-6.454-8.019c-4.986-6.195-7.704-13.908-7.704-21.86z" fill="#ffd18d"/></g></g></g><g><g><g><path d="m290.424 312.367v-24.02h-68.848v24.02c0 7.952-2.718 15.665-7.704 21.86l-6.454 8.019 17.374 13.471 11.64-15.136c1.185-1.472 2.241-3.031 3.163-4.657 2.264-3.996 6.629-6.373 11.217-6.177 1.724.074 3.454.111 5.188.111 12.526 0 24.828-1.893 36.545-5.535-1.389-3.804-2.121-7.847-2.121-11.956z" fill="#fbbd80"/></g></g></g><g><g><g><path d="m256 309.859c-53.59 0-98.218-41.111-102.608-94.521l-4.49-54.632c-4.929-59.983 42.423-111.386 102.608-111.386h8.98c60.185 0 107.537 51.403 102.607 111.386l-4.49 54.632c-4.389 53.41-49.017 94.521-102.607 94.521z" fill="#ffd18d"/></g></g></g><g><g><g><path d="m176.793 215.338-4.49-54.632c-4.731-57.565 38.693-107.219 95.397-111.129-2.382-.164-4.784-.257-7.21-.257h-8.98c-60.185 0-107.537 51.403-102.607 111.386l4.49 54.632c4.389 53.41 49.017 94.521 102.607 94.521 3.953 0 7.857-.229 11.7-.665-48.254-5.474-86.842-44.386-90.907-93.856z" fill="#fbbd80"/></g></g></g><g><g><g><path d="m271.341 136.546c6.779 4.501 15.191 5.798 23.011 3.547l18.155-5.224c9.785-2.816 20.366-.08 27.465 7.219 16.31 16.768 21.352 40.194 21.352 40.194l2.283-4.579c4.366-8.755 11.209-16.034 19.679-20.93l3.572-2.065s8.559-147.209-130.858-147.209-130.858 147.21-130.858 147.21l3.572 2.065c8.47 4.896 15.314 12.174 19.679 20.93l2.283 4.579s5.042-23.426 21.352-40.194c7.1-7.299 17.68-10.035 27.465-7.219l18.155 5.224c7.819 2.25 16.232.953 23.011-3.547 9.296-6.174 21.386-6.174 30.682-.001z" fill="#50412e"/></g></g></g><g><g><g><path d="m270.404 8.074c-4.623-.364-9.408-.574-14.404-.574-139.418 0-130.858 147.209-130.858 147.209l3.572 2.065c8.47 4.896 15.314 12.174 19.679 20.93l2.283 4.579s.646-2.988 2.211-7.581c.269-32.293 8.396-157.163 117.517-166.628z" fill="#443728"/></g></g></g></g><g><g><g><path d="m413.336 481.951-10.738-85.344c-4.438-35.267-34.588-61.862-70.133-61.862h-24.293l-4.202-5.222c-3.899-4.845-6.047-10.938-6.047-17.157v-3.257c12.009-4.927 23.158-11.982 32.912-20.967 19.021-17.522 31.173-40.925 34.614-66.407h16.372c14.656 0 26.58-11.923 26.58-26.58v-21.805c0-10.077-5.641-18.854-13.927-23.359.059-15.892-2.324-64.811-31.612-102.824-2.528-3.282-7.238-3.892-10.518-1.364-3.281 2.528-3.892 7.237-1.364 10.519 26.458 34.34 28.485 80.391 28.468 94.007-6.306 3.659-11.799 8.434-16.252 14.083-3.617-8.433-9.305-18.77-17.848-27.554-9.021-9.274-22.4-12.799-34.916-9.197l-18.155 5.224c-5.715 1.644-11.834.701-16.788-2.588-11.839-7.861-27.14-7.86-38.979 0-4.955 3.29-11.073 4.233-16.788 2.588l-18.155-5.224c-12.514-3.6-25.894-.077-34.916 9.197-8.544 8.784-14.231 19.121-17.849 27.554-4.454-5.65-9.95-10.427-16.258-14.086-.037-14.676 2.275-67 35.217-101.913 20.921-22.171 50.609-33.413 88.239-33.413 30.795 0 56.375 7.551 76.028 22.444 3.302 2.501 8.006 1.854 10.507-1.448 2.502-3.301 1.854-8.006-1.448-10.507-22.319-16.913-50.947-25.489-85.087-25.489-41.924 0-75.282 12.825-99.147 38.119-36.639 38.831-39.402 94.709-39.328 111.891-8.281 4.507-13.926 13.268-13.926 23.341v21.805c0 14.656 11.924 26.58 26.58 26.58h16.372c3.44 25.483 15.593 48.885 34.614 66.407 9.754 8.985 20.903 16.039 32.912 20.967v3.257c0 6.219-2.147 12.312-6.047 17.158l-4.202 5.221h-24.293c-35.545 0-65.695 26.595-70.133 61.861l-10.738 85.344c-.957 7.603 1.402 15.259 6.471 21.006s12.371 9.042 20.034 9.042h75.191c4.142 0 7.5-3.358 7.5-7.5s-3.358-7.5-7.5-7.5h-17.693l7.631-73.465c.428-4.12-2.565-7.807-6.685-8.235-4.124-.423-7.806 2.565-8.235 6.685l-7.792 75.016h-42.417c-3.41 0-6.529-1.408-8.785-3.965-2.255-2.557-3.263-5.828-2.837-9.211l10.738-85.344c2.715-21.581 17.656-39.033 37.313-45.752l55.588 43.658c11.075 8.588 24.893 13.318 38.909 13.318s27.833-4.729 38.902-13.312l9.222-7.136c3.276-2.535 3.876-7.246 1.342-10.521-2.536-3.276-7.246-3.876-10.521-1.342l-9.228 7.141c-8.458 6.559-19.012 10.171-29.717 10.171s-21.258-3.612-29.681-10.143l-44.327-34.814h22.765l29.745 23.063c6.302 4.887 13.852 7.329 21.404 7.329 7.55 0 15.104-2.443 21.404-7.329l29.745-23.064h23.612l-11.884 9.197c-3.275 2.535-3.876 7.246-1.341 10.521 1.478 1.91 3.695 2.91 5.937 2.91 1.603 0 3.219-.512 4.585-1.569l23.038-17.829c19.313 6.89 33.937 24.178 36.62 45.503l10.738 85.343c.426 3.383-.582 6.654-2.837 9.211-2.256 2.557-5.375 3.965-8.785 3.965h-42.417l-7.792-75.015c-.428-4.12-4.122-7.114-8.235-6.685-4.12.428-7.113 4.115-6.685 8.235l7.629 73.466h-97.943c-4.142 0-7.5 3.358-7.5 7.5s3.358 7.5 7.5 7.5h155.441c7.663 0 14.965-3.296 20.034-9.042 5.069-5.748 7.428-13.404 6.471-21.007zm-26.296-318.684.226-.131c3.647 1.952 6.136 5.797 6.136 10.215v21.805c0 6.385-5.195 11.58-11.58 11.58h-14.982l1.231-14.982h7.985c4.142 0 7.5-3.358 7.5-7.5s-3.358-7.5-7.5-7.5h-3.242c3.617-5.529 8.451-10.149 14.226-13.487zm-268.441 31.889v-21.805c0-4.418 2.488-8.263 6.136-10.215l.227.131c5.775 3.337 10.608 7.957 14.224 13.486h-3.242c-4.142 0-7.5 3.358-7.5 7.5s3.358 7.5 7.5 7.5h7.985l1.231 14.982h-14.982c-6.385.001-11.579-5.193-11.579-11.579zm42.268 19.568-2.618-31.858c1.121-4.384 6.325-22.358 19.156-35.548 5.157-5.302 12.825-7.31 20.015-5.241l18.155 5.224c9.95 2.863 20.606 1.222 29.233-4.507 6.799-4.514 15.586-4.514 22.384 0 8.627 5.728 19.282 7.372 29.234 4.507l18.155-5.224c7.189-2.069 14.858-.06 20.015 5.241 12.752 13.109 18.023 31.183 19.155 35.558l-2.617 31.848c-4.039 49.141-45.826 87.635-95.133 87.635s-91.095-38.494-95.134-87.635zm107.345 146.232c-7.19 5.575-17.234 5.575-24.425 0l-25.738-19.958 1.666-2.069c5.689-7.069 8.967-15.854 9.326-24.901 8.736 2.193 17.78 3.331 26.96 3.331s18.224-1.138 26.96-3.331c.359 9.047 3.637 17.832 9.326 24.901l1.666 2.069z"/></g></g><g><g><path d="m285.818 260.794 4.368-2.704c3.522-2.181 4.609-6.803 2.429-10.325-2.181-3.522-6.803-4.61-10.325-2.429l-4.368 2.704c-13.521 8.373-30.323 8.372-43.845 0l-4.368-2.704c-3.522-2.181-8.144-1.093-10.325 2.429-2.18 3.521-1.093 8.144 2.429 10.325l4.367 2.704c9.198 5.694 19.506 8.541 29.819 8.541 10.311 0 20.625-2.848 29.819-8.541z"/></g></g><g><g><path d="m222.563 188.02c2.511 0 4.964-1.261 6.384-3.552 2.181-3.521 1.094-8.144-2.428-10.325l-2.43-1.505c-11.312-7.003-25.366-7.003-36.678 0l-2.429 1.504c-3.521 2.181-4.608 6.804-2.428 10.325s6.802 4.607 10.325 2.428l2.428-1.504c6.442-3.988 14.444-3.988 20.885 0l2.429 1.504c1.231.762 2.595 1.125 3.942 1.125z"/></g></g><g><g><path d="m293.377 186.895 2.43-1.504c6.441-3.987 14.443-3.987 20.884 0l2.429 1.504c1.23.762 2.594 1.125 3.941 1.125 2.511 0 4.964-1.261 6.384-3.552 2.181-3.521 1.094-8.144-2.428-10.325l-2.43-1.505c-11.312-7.003-25.366-7.003-36.677 0l-2.43 1.504c-3.521 2.18-4.609 6.803-2.428 10.325 2.181 3.521 6.804 4.609 10.325 2.428z"/></g></g><g><g><ellipse cx="205.751" cy="204.294" rx="9.161" ry="9.161" transform="matrix(.383 -.924 .924 .383 -61.73 316.203)"/></g></g><g><g><circle cx="306.249" cy="204.294" r="9.161"/></g></g></g></g></svg>