<svg height="569pt" viewBox="0 -19 569.285 569" width="569pt" xmlns="http://www.w3.org/2000/svg"><path d="m521.582031 94.964844h-132.765625v-47.414063c-.03125-26.175781-21.242187-47.386719-47.414062-47.417969h-113.804688c-26.171875.03125-47.382812 21.242188-47.414062 47.417969v47.414063h-132.765625c-26.175781.03125-47.386719 21.242187-47.417969 47.417968v341.398438c.03125 26.175781 21.242188 47.386719 47.417969 47.417969h474.164062c26.175781-.03125 47.386719-21.242188 47.417969-47.417969v-341.398438c-.03125-26.175781-21.242188-47.386718-47.417969-47.417968zm-322.433593-47.414063c0-15.714843 12.738281-28.453125 28.449218-28.453125h113.800782c15.714843 0 28.449218 12.738282 28.449218 28.453125v47.414063h-18.964844v-47.414063c0-5.238281-4.246093-9.484375-9.480468-9.484375h-113.804688c-5.234375 0-9.480468 4.246094-9.480468 9.484375v47.414063h-18.96875zm37.933593 47.414063v-37.933594h94.835938v37.933594zm-218.117187 47.417968c0-15.710937 12.738281-28.449218 28.453125-28.449218h474.164062c15.714844 0 28.449219 12.738281 28.449219 28.449218v98.132813l-218.113281 95.960937v-23.394531c0-5.238281-4.246094-9.484375-9.484375-9.484375h-75.867188c-5.238281 0-9.484375 4.246094-9.484375 9.484375v23.394531l-218.117187-95.960937zm293.984375 199.148438h-56.898438v-18.964844h56.898438zm-56.898438 18.96875h56.898438v28.449219c0 15.710937-12.734375 28.449219-28.449219 28.449219-15.710938 0-28.449219-12.738282-28.449219-28.449219zm265.53125 151.734375h-474.164062c-15.714844 0-28.453125-12.738281-28.453125-28.453125v-222.542969l218.117187 95.96875v31.742188c0 26.1875 21.230469 47.417969 47.417969 47.417969s47.417969-21.230469 47.417969-47.417969v-31.742188l218.113281-95.96875v222.542969c.003906 15.714844-12.734375 28.453125-28.449219 28.453125zm0 0"/><path d="m275.015625 379.464844h18.96875v18.96875h-18.96875zm0 0"/></svg>