<svg id="Capa_1" enable-background="new 0 0 512 512" height="512" viewBox="0 0 512 512" width="512" xmlns="http://www.w3.org/2000/svg"><g><g><g><g><g><path d="m380.693 201.294v71.573c0 20.822 7.112 41.019 20.158 57.247l8.272 10.289c8.114 10.093 4.742 25.108-6.908 30.763l-32.866 15.953h-226.698l-32.866-15.953c-11.65-5.655-15.021-20.671-6.908-30.763l8.272-10.289c13.046-16.228 20.158-36.425 20.158-57.247v-71.573z" fill="#a0522d"/></g></g></g><g><g><g><path d="m133.116 340.404 8.272-10.289c13.046-16.228 20.158-36.425 20.158-57.247v-71.573h-30.238v71.573c0 20.822-7.112 41.019-20.158 57.247l-8.272 10.289c-8.114 10.093-4.742 25.108 6.908 30.763l32.866 15.953h30.238l-32.866-15.953c-11.65-5.655-15.022-20.671-6.908-30.763z" fill="#783e22"/></g></g></g><g><g><g><path d="m386.831 504.5h-261.662c-11.564 0-20.507-10.14-19.064-21.613l10.738-85.344c3.976-31.597 30.845-55.298 62.691-55.298h152.931c31.847 0 58.716 23.7 62.691 55.298l10.738 85.344c1.444 11.473-7.5 21.613-19.063 21.613z" fill="#ff656f"/></g></g></g><g><g><g><path d="m136.344 482.887 10.738-85.344c3.976-31.597 30.845-55.298 62.691-55.298h-30.238c-31.847 0-58.716 23.7-62.691 55.298l-10.738 85.344c-1.444 11.473 7.5 21.613 19.064 21.613h30.238c-11.564 0-20.508-10.14-19.064-21.613z" fill="#ff4756"/></g></g></g><g><g><g><path d="m334.651 352.257c-.227-3.531-1.09-6.905-2.469-10.011h-27.6l-31.774 24.637c-9.893 7.671-23.723 7.671-33.616 0l-31.774-24.637h-27.884c-.058.038-.119.077-.177.115-1.349 3.074-2.194 6.409-2.418 9.896-1.115 17.319 12.603 31.714 29.682 31.714.075 0 .15 0 .225-.001 10.455-.078 20.676 3.556 28.149 10.868 5.363 5.248 12.704 8.482 20.8 8.482s15.437-3.235 20.801-8.483c7.472-7.311 17.69-10.947 28.144-10.868.076.001.153.001.229.001 17.08.001 30.797-14.394 29.682-31.713z" fill="#ffd05b"/></g></g></g><g><g><g><path d="m207.487 342.298-.068-.053h-27.884c-.058.038-.119.077-.177.115-1.237 2.82-2.044 5.861-2.343 9.036 8.976-5.449 19.393-8.701 30.472-9.098z" fill="#ffc244"/></g></g></g><g><g><g><path d="m160.789 214.236h-30.61c-10.538 0-19.08-8.542-19.08-19.08v-21.805c0-10.538 8.542-19.08 19.08-19.08h30.61z" fill="#fbbd80"/></g></g></g><g><g><g><path d="m351.211 154.271h30.61c10.538 0 19.08 8.542 19.08 19.08v21.805c0 10.538-8.542 19.08-19.08 19.08h-30.61z" fill="#fbbd80"/></g></g></g><g><g><g><path d="m290.424 312.367v-24.02h-68.848v24.02c0 7.952-2.718 15.665-7.704 21.86l-6.454 8.019 31.774 24.637c9.893 7.671 23.723 7.671 33.616 0l31.774-24.637-6.454-8.019c-4.986-6.195-7.704-13.908-7.704-21.86z" fill="#ffd18d"/></g></g></g><g><g><g><path d="m290.424 312.367v-24.02h-68.848v24.02c0 7.952-2.718 15.665-7.704 21.86l-6.454 8.019 17.374 13.471 11.64-15.136c1.185-1.472 2.241-3.031 3.163-4.657 2.264-3.996 6.629-6.373 11.217-6.177 1.724.074 3.454.111 5.188.111 12.526 0 24.828-1.893 36.545-5.535-1.389-3.804-2.121-7.847-2.121-11.956z" fill="#fbbd80"/></g></g></g><g><g><g><path d="m256 309.859c-53.59 0-98.218-41.111-102.608-94.521l-4.49-54.632c-4.929-59.983 42.423-111.386 102.608-111.386h8.98c60.185 0 107.537 51.403 102.607 111.386l-4.49 54.632c-4.389 53.41-49.017 94.521-102.607 94.521z" fill="#ffd18d"/></g></g></g><g><g><g><path d="m176.793 215.338-4.49-54.632c-4.731-57.565 38.693-107.219 95.397-111.129-2.382-.164-4.784-.257-7.21-.257h-8.98c-60.185 0-107.537 51.403-102.607 111.386l4.49 54.632c4.389 53.41 49.017 94.521 102.607 94.521 3.953 0 7.857-.229 11.7-.665-48.254-5.474-86.842-44.386-90.907-93.856z" fill="#fbbd80"/></g></g></g><g><g><g><path d="m131.32 154.271h27.275c8.897 0 17.769-.937 26.47-2.797l22.893-4.892c15.722-3.36 28.912-13.99 35.535-28.64l2.598-5.747c3.45-7.631 14.198-7.875 17.99-.408l4.415 8.692c6.692 13.176 18.81 22.768 33.171 26.257l16.277 3.954c9.79 2.378 19.828 3.58 29.903 3.58h32.714v-37.54c0-60.326-48.904-109.23-109.23-109.23h-30.78c-60.326 0-109.23 48.904-109.23 109.23v37.541z" fill="#a0522d"/></g></g></g><g><g><g><path d="m161.558 116.73c0-60.326 48.904-109.23 109.23-109.23h-30.238c-60.326 0-109.23 48.904-109.23 109.23v37.541h27.275c.988 0 1.976-.016 2.964-.039v-37.502z" fill="#783e22"/></g></g></g></g><g><g><g><path d="m420.398 359.093c1.855-8.263-.124-16.788-5.43-23.389l-8.272-10.29c-11.932-14.842-18.503-33.504-18.503-52.547v-51.909c11.588-2.862 20.208-13.342 20.208-25.802v-21.805c0-12.507-8.686-23.018-20.341-25.833v-30.788c0-22.225-6.272-43.844-18.137-62.519-2.222-3.496-6.856-4.53-10.353-2.308-3.496 2.221-4.53 6.856-2.309 10.352 10.335 16.267 15.798 35.104 15.798 54.475v30.041h-25.214c-9.468 0-18.933-1.133-28.132-3.368l-16.276-3.954c-12.248-2.976-22.546-11.127-28.254-22.365l-4.415-8.692c-3.073-6.05-9.177-9.713-15.979-9.56-6.785.153-12.736 4.09-15.532 10.274l-2.598 5.747c-5.617 12.426-16.933 21.545-30.269 24.395l-22.893 4.892c-8.168 1.746-16.547 2.631-24.902 2.631h-19.775v-30.041c0-56.094 45.636-101.73 101.73-101.73h30.78c22.768 0 44.291 7.35 62.242 21.256 3.274 2.536 7.985 1.938 10.522-1.336s1.938-7.985-1.336-10.522c-20.605-15.961-45.304-24.398-71.428-24.398h-30.78c-64.365 0-116.73 52.365-116.73 116.73v30.815c-11.595 2.858-20.221 13.341-20.221 25.806v21.805c0 12.46 8.62 22.94 20.208 25.802v51.909c0 19.043-6.571 37.705-18.503 52.547l-8.272 10.29c-5.307 6.601-7.286 15.125-5.43 23.389 1.855 8.263 7.29 15.123 14.908 18.821l6.651 3.229c-1.801 4.912-3.083 10.086-3.76 15.465-.517 4.109 2.396 7.86 6.505 8.377 4.111.515 7.86-2.396 8.377-6.505 3.071-24.409 21.78-43.539 45.267-47.827-.036.373-.072.747-.096 1.122-.671 10.419 2.878 20.335 9.993 27.923 7.016 7.482 16.92 11.773 27.173 11.773l.281-.001c8.916-.114 17.027 3.033 22.848 8.729 7.001 6.849 16.251 10.621 26.046 10.621s19.045-3.772 26.046-10.622c5.759-5.636 13.76-8.73 22.567-8.73.094 0 .19 0 .285.001l.276.001c10.253 0 20.158-4.291 27.173-11.773 7.115-7.587 10.664-17.504 9.993-27.922-.026-.398-.064-.794-.102-1.19 23.681 4.137 42.593 23.343 45.682 47.895l10.738 85.343c.426 3.383-.582 6.654-2.837 9.211-2.256 2.557-5.375 3.965-8.785 3.965h-42.417l-7.792-75.015c-.429-4.12-4.119-7.114-8.235-6.685-4.12.428-7.113 4.115-6.685 8.235l7.631 73.466h-97.943c-4.142 0-7.5 3.358-7.5 7.5s3.358 7.5 7.5 7.5h155.441c7.663 0 14.965-3.296 20.034-9.042 5.069-5.747 7.428-13.403 6.471-21.006l-10.738-85.344c-.677-5.379-1.959-10.553-3.76-15.465l6.651-3.229c7.619-3.698 13.053-10.558 14.909-18.821zm-39.838-197.322h1.261c6.385 0 11.58 5.195 11.58 11.58v21.805c0 6.385-5.195 11.58-11.58 11.58h-14.982l1.231-14.982h7.985c4.142 0 7.5-3.358 7.5-7.5s-3.358-7.5-7.5-7.5h-6.753l1.231-14.982h10.027zm-193.928-2.962 22.893-4.892c17.977-3.841 33.229-16.134 40.802-32.885l2.598-5.747c.56-1.237 1.621-1.444 2.203-1.458.59-.013 1.652.146 2.266 1.356l4.415 8.692c7.695 15.149 21.577 26.137 38.087 30.148l16.276 3.954c10.357 2.516 21.014 3.792 31.673 3.792h7.639l-4.352 52.953c-4.039 49.141-45.826 87.635-95.133 87.635s-91.094-38.494-95.133-87.635l-4.352-52.953h2.079c9.409.002 18.842-.995 28.039-2.96zm105.653 180.12 1.666 2.069-25.738 19.958c-7.19 5.575-17.234 5.575-24.425 0l-25.738-19.958 1.666-2.069c5.689-7.069 8.967-15.854 9.326-24.901 8.736 2.193 17.78 3.331 26.96 3.331s18.224-1.138 26.96-3.331c.357 9.047 3.634 17.832 9.323 24.901zm-173.686-143.773v-21.805c0-6.385 5.195-11.58 11.58-11.58h1.141 10.145l1.231 14.982h-6.753c-4.142 0-7.5 3.358-7.5 7.5s3.358 7.5 7.5 7.5h7.985l1.231 14.982h-14.982c-6.384.001-11.578-5.193-11.578-11.579zm1.209 172.539-6.748-3.275c-3.486-1.692-5.973-4.832-6.822-8.613-.849-3.782.057-7.683 2.485-10.704l8.272-10.29c14.066-17.497 21.812-39.496 21.812-61.946v-51.132h7.744c3.44 25.483 15.593 48.885 34.614 66.407 9.754 8.985 20.903 16.039 32.912 20.967v3.257c0 6.219-2.147 12.312-6.047 17.158l-4.202 5.221h-24.293c-24.879.001-47.101 13.039-59.727 32.95zm201.393 1.742c-4.253 4.536-10.018 7.034-16.231 7.034l-.173-.001c-12.909-.085-24.774 4.521-33.445 13.007-4.181 4.09-9.705 6.343-15.556 6.343s-11.375-2.252-15.556-6.343c-8.67-8.483-20.569-13.086-33.444-13.007l-.175.001c-6.214 0-11.978-2.498-16.231-7.033-4.249-4.531-6.368-10.461-5.966-16.699.065-1.009.209-2.007.413-2.993h20.014l29.745 23.063c6.302 4.887 13.852 7.329 21.404 7.329 7.55 0 15.104-2.443 21.404-7.329l29.745-23.064h19.593c.204.987.36 1.983.425 2.993.401 6.238-1.718 12.168-5.966 16.699zm77.739-5.017-6.748 3.275c-12.626-19.911-34.848-32.95-59.727-32.95h-24.293l-4.202-5.222c-3.899-4.845-6.047-10.938-6.047-17.157v-3.257c12.009-4.927 23.158-11.982 32.912-20.967 19.021-17.522 31.173-40.925 34.614-66.407h7.744v51.132c0 22.45 7.747 44.449 21.812 61.946l8.272 10.29c2.428 3.021 3.334 6.922 2.485 10.704-.849 3.781-3.336 6.921-6.822 8.613z"/></g></g><g><g><path d="m200.36 497h-17.693l7.631-73.465c.428-4.12-2.565-7.807-6.685-8.235-4.117-.423-7.806 2.565-8.235 6.685l-7.792 75.015h-42.417c-3.41 0-6.529-1.408-8.785-3.965-2.255-2.557-3.263-5.828-2.837-9.211l7.016-55.757c.517-4.11-2.396-7.861-6.505-8.378-4.121-.519-7.861 2.396-8.378 6.505l-7.016 55.757c-.957 7.603 1.402 15.259 6.471 21.006s12.371 9.042 20.034 9.042h75.191c4.142 0 7.5-3.358 7.5-7.5s-3.358-7.499-7.5-7.499z"/></g></g><g><g><path d="m219.385 247.766c-2.18 3.521-1.093 8.144 2.429 10.325l4.367 2.704c9.198 5.694 19.506 8.541 29.819 8.541 10.31 0 20.624-2.848 29.818-8.541l4.368-2.704c3.522-2.181 4.609-6.803 2.429-10.325-2.181-3.522-6.804-4.61-10.325-2.429l-4.368 2.704c-13.521 8.373-30.323 8.372-43.845 0l-4.368-2.704c-3.521-2.181-8.144-1.094-10.324 2.429z"/></g></g><g><g><path d="m192.879 186.895 2.428-1.504c6.442-3.988 14.445-3.988 20.885 0l2.429 1.504c1.23.762 2.594 1.125 3.941 1.125 2.511 0 4.964-1.261 6.384-3.552 2.181-3.521 1.094-8.144-2.428-10.325l-2.43-1.505c-11.312-7.003-25.366-7.003-36.678 0l-2.429 1.504c-3.521 2.181-4.608 6.804-2.428 10.325 2.182 3.521 6.803 4.608 10.326 2.428z"/></g></g><g><g><path d="m293.377 186.895 2.43-1.504c6.441-3.987 14.443-3.987 20.884 0l2.429 1.504c1.23.762 2.594 1.125 3.941 1.125 2.511 0 4.964-1.261 6.384-3.552 2.181-3.521 1.094-8.144-2.428-10.325l-2.43-1.505c-11.312-7.003-25.366-7.003-36.677 0l-2.43 1.504c-3.521 2.18-4.609 6.803-2.428 10.325 2.18 3.521 6.803 4.609 10.325 2.428z"/></g></g><g><g><ellipse cx="205.751" cy="204.294" rx="9.161" ry="9.161" transform="matrix(.987 -.16 .16 .987 -30.068 35.596)"/></g></g><g><g><ellipse cx="306.249" cy="204.294" rx="9.161" ry="9.161" transform="matrix(.383 -.924 .924 .383 .309 409.052)"/></g></g></g></g></svg>