<svg id="Glyph" height="512" viewBox="0 0 128 128" width="512" xmlns="http://www.w3.org/2000/svg"><path d="m66.67 31.83 47 17.06a2.61 2.61 0 0 0 -.09.69v13.48l-10.36 3.76-.5-10.15a3 3 0 0 0 -2.29-2.78 152.09 152.09 0 0 0 -72.8 0 3 3 0 0 0 -2.26 2.77l-.5 10.17-23.13-8.39a2.64 2.64 0 0 1 0-5l59.58-21.61a7.81 7.81 0 0 1 5.35 0z"/><path d="m128 56a2.61 2.61 0 0 1 -1.74 2.48l-6.73 2.44v-9.92l6.73 2.45a2.63 2.63 0 0 1 1.74 2.55z"/><path d="m102.58 95.59a1 1 0 0 1 -.27.74 1 1 0 0 1 -.73.31h-75.17a1 1 0 0 1 -.72-.31 1 1 0 0 1 -.28-.74l1.91-38.83a1 1 0 0 1 .76-.93 150.19 150.19 0 0 1 71.83 0 1 1 0 0 1 .76.93z"/><path d="m122.71 91.8a1 1 0 0 1 -.2.84 1 1 0 0 1 -.78.37h-10.39a1 1 0 0 1 -1-1.19l2.91-14.88a4 4 0 0 1 -1-2.62 4.13 4.13 0 0 1 3.23-4v-20.74l2 .73v20a4.12 4.12 0 0 1 3 4 4.06 4.06 0 0 1 -1 2.72z"/></svg>